<svg xmlns="http://www.w3.org/2000/svg" width="291.843" height="271.501" viewBox="0 0 291.843 271.501">
  <g id="组_1263" data-name="组 1263" transform="translate(-512.924 -726.5)">
    <path id="路径_17" data-name="路径 17" d="M1360.012,563.5a9,9,0,0,1-7.071-14.566,109.574,109.574,0,0,0,22.079-52.867c-16.749-8.3-61.153-35.4-62.5-89.844-2.093-84.421,105.451-109.48,110.031-110.506a9,9,0,0,1,7.026,16.226c-1.364.954-34.5,24.82-33.893,87.3,0,62.766,28.286,89.155,51.326,97.122-10.75-53.352-21.534-108.789,2.827-197.745a9,9,0,0,1,17.246-.385c1.163,3.609,2.559,7.786,4.12,12.458,9.675,28.962,24.944,74.665,31.981,122.668,5.633-40.462,4.426-83.567-14.291-122.824a9,9,0,0,1,9.6-12.751c27.823,4.637,46.6,18.4,47.387,18.986a9,9,0,0,1,1.85,1.847c1.718,2.305,16.783,24.156,16.783,80.711,0,28.039-10.983,55.02-18.251,72.875l-.54,1.328c13.865-9.443,33.682-28.752,39.148-54.651,4.4-20.861-1.362-42.423-17.132-64.088A9,9,0,1,1,1582.29,344.2c18.9,25.961,25.692,52.338,20.192,78.4-6.931,32.844-32.319,57.8-51.953,69.184-6.738,4.384-16.49,10.709-23.835,4.635-7.273-6.015-3.661-14.889,2.9-31,6.739-16.555,16.923-41.573,16.923-66.088,0-43.982-9.929-64.275-12.621-68.965a101.692,101.692,0,0,0-21.652-10.509c22.673,63.213,8.752,131.709-6.57,185.6a9,9,0,0,1-17.618-3.292c5.336-57.556-13.84-124.288-28.106-168.176-13.525,68.368-4.124,115.016,5.005,160.311l2.392,11.956a9,9,0,0,1-9.578,10.709c-29.745-2.479-80.086-30.044-80.086-117.636-.335-34.515,8.707-59.069,18.469-75.455-28.53,12.68-66.729,37.918-65.638,81.9,1.336,53.877,56.717,76.121,57.277,76.34a9,9,0,0,1,5.725,8.518c-.018,1.175-.529,23.4-13.248,48.678,15.711-6.164,22.738-13.028,22.833-13.123a9,9,0,0,1,12.887,12.567c-.672.695-16.881,17.105-54.206,24.57A9,9,0,0,1,1360.012,563.5Z" transform="translate(-799.563 434.5)" fill="#5157af"/>
    <path id="直线_6" data-name="直线 6" d="M37.5,9H0A9,9,0,0,1-9,0,9,9,0,0,1,0-9H37.5a9,9,0,0,1,9,9A9,9,0,0,1,37.5,9Z" transform="translate(524.451 839)" fill="#5157af"/>
  </g>
</svg>
